<?xml version="1.0" standalone="no"?>
<svg xmlns:xlink="http://www.w3.org/1999/xlink" id="wave" style="transform:rotate(0deg); transition: 0.3s" viewBox="0 0 1440 400" version="1.1" xmlns="http://www.w3.org/2000/svg"><defs><linearGradient id="sw-gradient-0" x1="0" x2="0" y1="1" y2="0"><stop stop-color="rgba(124.764, 184.845, 255, 1)" offset="0%"/><stop stop-color="rgba(255, 255, 255, 1)" offset="100%"/></linearGradient></defs><path style="transform:translate(0, 0px); opacity:1" fill="url(#sw-gradient-0)" d="M0,200L80,213.3C160,227,320,253,480,240C640,227,800,173,960,146.7C1120,120,1280,120,1440,106.7C1600,93,1760,67,1920,86.7C2080,107,2240,173,2400,213.3C2560,253,2720,267,2880,266.7C3040,267,3200,253,3360,233.3C3520,213,3680,187,3840,180C4000,173,4160,187,4320,200C4480,213,4640,227,4800,193.3C4960,160,5120,80,5280,40C5440,0,5600,0,5760,0C5920,0,6080,0,6240,60C6400,120,6560,240,6720,266.7C6880,293,7040,227,7200,200C7360,173,7520,187,7680,213.3C7840,240,8000,280,8160,300C8320,320,8480,320,8640,266.7C8800,213,8960,107,9120,86.7C9280,67,9440,133,9600,166.7C9760,200,9920,200,10080,193.3C10240,187,10400,173,10560,186.7C10720,200,10880,240,11040,226.7C11200,213,11360,147,11440,113.3L11520,80L11520,400L11440,400C11360,400,11200,400,11040,400C10880,400,10720,400,10560,400C10400,400,10240,400,10080,400C9920,400,9760,400,9600,400C9440,400,9280,400,9120,400C8960,400,8800,400,8640,400C8480,400,8320,400,8160,400C8000,400,7840,400,7680,400C7520,400,7360,400,7200,400C7040,400,6880,400,6720,400C6560,400,6400,400,6240,400C6080,400,5920,400,5760,400C5600,400,5440,400,5280,400C5120,400,4960,400,4800,400C4640,400,4480,400,4320,400C4160,400,4000,400,3840,400C3680,400,3520,400,3360,400C3200,400,3040,400,2880,400C2720,400,2560,400,2400,400C2240,400,2080,400,1920,400C1760,400,1600,400,1440,400C1280,400,1120,400,960,400C800,400,640,400,480,400C320,400,160,400,80,400L0,400Z"/></svg>